<mxfile host="65bd71144e">
    <diagram id="5E7bXjqMVbRlg9rBzbMF" name="PÃ¡gina-1">
        <mxGraphModel dx="1448" dy="779" grid="1" gridSize="10" guides="1" tooltips="1" connect="1" arrows="1" fold="1" page="1" pageScale="1" pageWidth="827" pageHeight="1169" math="0" shadow="0">
            <root>
                <mxCell id="0"/>
                <mxCell id="1" parent="0"/>
                <mxCell id="2" value="Material" style="swimlane;fontStyle=1;align=center;verticalAlign=top;childLayout=stackLayout;horizontal=1;startSize=30;horizontalStack=0;resizeParent=1;resizeParentMax=0;resizeLast=0;collapsible=0;marginBottom=0;html=1;" vertex="1" parent="1">
                    <mxGeometry x="10" y="290" width="270" height="170" as="geometry"/>
                </mxCell>
                <mxCell id="4" value="" style="swimlane;fontStyle=1;align=center;verticalAlign=top;horizontal=1;startSize=0;collapsible=0;marginBottom=0;html=1;strokeColor=none;fillColor=none;" vertex="1" parent="2">
                    <mxGeometry y="30" width="270" height="140" as="geometry"/>
                </mxCell>
                <mxCell id="9" style="edgeStyle=none;html=1;exitX=0.25;exitY=1;exitDx=0;exitDy=0;entryX=0.25;entryY=0;entryDx=0;entryDy=0;" edge="1" parent="4" source="5" target="6">
                    <mxGeometry relative="1" as="geometry"/>
                </mxCell>
                <mxCell id="5" value="Documento" style="html=1;align=center;verticalAlign=middle;rotatable=0;" vertex="1" parent="4">
                    <mxGeometry width="100" height="30" relative="1" as="geometry">
                        <mxPoint x="85" y="10" as="offset"/>
                    </mxGeometry>
                </mxCell>
                <mxCell id="6" value="Libro" style="html=1;align=center;verticalAlign=middle;rotatable=0;" vertex="1" parent="4">
                    <mxGeometry width="100" height="30" relative="1" as="geometry">
                        <mxPoint x="20" y="90" as="offset"/>
                    </mxGeometry>
                </mxCell>
                <mxCell id="10" style="edgeStyle=none;html=1;exitX=0.75;exitY=1;exitDx=0;exitDy=0;entryX=0.75;entryY=0;entryDx=0;entryDy=0;" edge="1" parent="4" target="11" source="5">
                    <mxGeometry relative="1" as="geometry">
                        <mxPoint x="240" y="40" as="sourcePoint"/>
                    </mxGeometry>
                </mxCell>
                <mxCell id="11" value="Registro" style="html=1;align=center;verticalAlign=middle;rotatable=0;" vertex="1" parent="4">
                    <mxGeometry x="150" y="90" width="100" height="30" as="geometry"/>
                </mxCell>
                <mxCell id="12" value="Prestamo" style="swimlane;fontStyle=1;align=center;verticalAlign=top;childLayout=stackLayout;horizontal=1;startSize=30;horizontalStack=0;resizeParent=1;resizeParentMax=0;resizeLast=0;collapsible=0;marginBottom=0;html=1;" vertex="1" parent="1">
                    <mxGeometry x="304" y="305" width="220" height="140" as="geometry"/>
                </mxCell>
                <mxCell id="14" value="" style="swimlane;fontStyle=1;align=center;verticalAlign=top;horizontal=1;startSize=0;collapsible=0;marginBottom=0;html=1;strokeColor=none;fillColor=none;" vertex="1" parent="12">
                    <mxGeometry y="30" width="220" height="110" as="geometry"/>
                </mxCell>
                <mxCell id="17" value="Prestamo" style="html=1;align=center;verticalAlign=middle;rotatable=0;" vertex="1" parent="14">
                    <mxGeometry width="100" height="30" relative="1" as="geometry">
                        <mxPoint x="60" y="30" as="offset"/>
                    </mxGeometry>
                </mxCell>
                <mxCell id="34" style="edgeStyle=none;html=1;entryX=0.5;entryY=0;entryDx=0;entryDy=0;exitX=1;exitY=0.5;exitDx=0;exitDy=0;" edge="1" parent="1" source="24" target="12">
                    <mxGeometry relative="1" as="geometry">
                        <Array as="points">
                            <mxPoint x="414" y="90"/>
                        </Array>
                    </mxGeometry>
                </mxCell>
                <mxCell id="36" style="edgeStyle=none;html=1;entryX=0.5;entryY=0;entryDx=0;entryDy=0;" edge="1" parent="1" source="24" target="2">
                    <mxGeometry relative="1" as="geometry">
                        <Array as="points">
                            <mxPoint x="150" y="90"/>
                        </Array>
                    </mxGeometry>
                </mxCell>
                <mxCell id="37" style="edgeStyle=none;html=1;entryX=0.5;entryY=0;entryDx=0;entryDy=0;" edge="1" parent="1" source="24" target="25">
                    <mxGeometry relative="1" as="geometry">
                        <Array as="points">
                            <mxPoint x="690" y="80"/>
                        </Array>
                    </mxGeometry>
                </mxCell>
                <mxCell id="24" value="Biblioteca" style="html=1;align=center;verticalAlign=middle;rotatable=0;" vertex="1" parent="1">
                    <mxGeometry x="230" y="70" width="100" height="30" as="geometry"/>
                </mxCell>
                <mxCell id="25" value="Persona" style="swimlane;fontStyle=1;align=center;verticalAlign=top;childLayout=stackLayout;horizontal=1;startSize=30;horizontalStack=0;resizeParent=1;resizeParentMax=0;resizeLast=0;collapsible=0;marginBottom=0;html=1;" vertex="1" parent="1">
                    <mxGeometry x="570" y="280" width="240" height="200" as="geometry"/>
                </mxCell>
                <mxCell id="26" value="" style="swimlane;fontStyle=1;align=center;verticalAlign=top;horizontal=1;startSize=0;collapsible=0;marginBottom=0;html=1;strokeColor=none;fillColor=none;" vertex="1" parent="25">
                    <mxGeometry y="30" width="240" height="170" as="geometry"/>
                </mxCell>
                <mxCell id="32" style="edgeStyle=none;html=1;exitX=0.25;exitY=1;exitDx=0;exitDy=0;entryX=0.25;entryY=0;entryDx=0;entryDy=0;" edge="1" parent="26" source="27" target="30">
                    <mxGeometry relative="1" as="geometry"/>
                </mxCell>
                <mxCell id="33" style="edgeStyle=none;html=1;exitX=0.75;exitY=1;exitDx=0;exitDy=0;entryX=0.75;entryY=0;entryDx=0;entryDy=0;" edge="1" parent="26" source="27" target="31">
                    <mxGeometry relative="1" as="geometry"/>
                </mxCell>
                <mxCell id="27" value="Persona" style="html=1;align=center;verticalAlign=middle;rotatable=0;" vertex="1" parent="26">
                    <mxGeometry width="100" height="30" relative="1" as="geometry">
                        <mxPoint x="70" y="30" as="offset"/>
                    </mxGeometry>
                </mxCell>
                <mxCell id="30" value="Alumno" style="html=1;align=center;verticalAlign=middle;rotatable=0;" vertex="1" parent="26">
                    <mxGeometry x="10" y="105" width="100" height="30" as="geometry"/>
                </mxCell>
                <mxCell id="31" value="Profesor" style="html=1;align=center;verticalAlign=middle;rotatable=0;" vertex="1" parent="26">
                    <mxGeometry x="130" y="105" width="100" height="30" as="geometry"/>
                </mxCell>
            </root>
        </mxGraphModel>
    </diagram>
</mxfile>